<?xml version="1.0" standalone="no"?><!DOCTYPE svg PUBLIC "-//W3C//DTD SVG 1.1//EN" "http://www.w3.org/Graphics/SVG/1.1/DTD/svg11.dtd"><svg t="1703817033996" class="icon" viewBox="0 0 1024 1024" version="1.1" xmlns="http://www.w3.org/2000/svg" p-id="5233" xmlns:xlink="http://www.w3.org/1999/xlink" width="200" height="200"><path d="M507.8 215.1c-12.5-3.8-25.9-3.4-38.1 1.4L194.2 324c-8.2 3.2-14.5 10-17.1 18.4-4.8 15.3 3.8 31.5 19 36.3L469.9 464c12.5 3.9 25.9 3.4 38-1.3l279-107.5c8.3-3.2 14.7-10 17.3-18.5 4.7-15.3-3.9-31.5-19.2-36.2l-277.2-85.4z m299.4 234.8c16 0 29 13 29 29v318.6c0 16-13 29-29 29s-29-13-29-29V478.9c0-16 13-29 29-29z m-115.9-8.8l-181.7 77.6c-13.6 5.8-28.8 6.2-42.7 1.1l-210-76.8v215.3c0 20.4 10.7 39.2 28.2 49.7 67.4 40.4 134.2 60.6 200.5 60.6 65.8 0 126.4-19.9 181.7-59.7 15.1-10.9 24.1-28.4 24.1-47l-0.1-220.8zM199 421.8l-47.7-17.5c-30-11-45.5-44.3-34.5-74.3 5.5-15 17-27.1 31.7-33.4L468 160.3c13.6-5.8 28.8-6.2 42.7-1.1l315.2 115.6c30 11 45.5 44.3 34.4 74.3-5.5 15-16.9 27.1-31.6 33.3L746 417.7h3.2v294.7c0 20.8-11.1 40-29.1 50.3-70.5 40.3-147.6 60.5-231.5 60.5-84.8 0-170.4-20.6-256.7-61.9-20.1-9.6-32.9-30-32.9-52.3V421.8z" p-id="5234"></path></svg>